<?xml version="1.0" encoding="UTF-8"?>
<svg width="346px" height="40px" viewBox="0 0 346 40" version="1.1" xmlns="http://www.w3.org/2000/svg" xmlns:xlink="http://www.w3.org/1999/xlink">
    <!-- Generator: Sketch 52.2 (67145) - http://www.bohemiancoding.com/sketch -->
    <title>logo</title>
    <desc>Created with Sketch.</desc>
    <g id="Page-1" stroke="none" stroke-width="1" fill="none" fill-rule="evenodd">
        <g id="loopnest" transform="translate(-61.000000, -21.000000)">
            <g id="top">
                <g id="header">
                    <g id="logo" transform="translate(61.000000, 21.000000)">
                        <path d="M61.5868125,27.3068125 L61.5868125,7.8818125 L64.4005625,7.5449375 L64.4005625,27.2449375 C64.4005625,28.1018125 64.6761875,28.5299375 65.4105625,28.5299375 C65.8086875,28.5299375 66.1443125,28.4686875 66.4505625,28.3468125 L67.1849375,30.3043125 C66.5730625,30.6405625 65.7774375,30.8549375 64.9518125,30.8549375 C62.9018125,30.8549375 61.5868125,29.6005625 61.5868125,27.3068125 Z M72.2643125,22.4429375 C72.2643125,26.6335625 73.7324375,28.5916875 76.4243125,28.5916875 C79.1168125,28.5916875 80.5849375,26.6335625 80.5849375,22.4116875 C80.5849375,18.2210625 79.1168125,16.2629375 76.4555625,16.2629375 C73.7630625,16.2629375 72.2643125,18.2210625 72.2643125,22.4429375 Z M83.6130625,22.4116875 C83.6130625,27.3985625 80.9824375,30.8548125 76.4243125,30.8548125 C71.8355625,30.8548125 69.2355625,27.5510625 69.2355625,22.4429375 C69.2355625,17.4560625 71.8668125,13.9998125 76.4555625,13.9998125 C81.0443125,13.9998125 83.6130625,17.3035625 83.6130625,22.4116875 Z M90.1305,22.4429375 C90.1305,26.6335625 91.59925,28.5916875 94.291125,28.5916875 C96.983625,28.5916875 98.451125,26.6335625 98.451125,22.4116875 C98.451125,18.2210625 96.983625,16.2629375 94.32175,16.2629375 C91.62925,16.2629375 90.1305,18.2210625 90.1305,22.4429375 Z M101.479875,22.4116875 C101.479875,27.3985625 98.84925,30.8548125 94.291125,30.8548125 C89.702375,30.8548125 87.102375,27.5510625 87.102375,22.4429375 C87.102375,17.4560625 89.733,13.9998125 94.32175,13.9998125 C98.9105,13.9998125 101.479875,17.3035625 101.479875,22.4116875 Z M116.471437,22.4118125 C116.471437,18.2211875 115.248312,16.2330625 112.831437,16.2330625 C111.118937,16.2330625 109.803312,17.4561875 108.947062,18.7411875 L108.947062,26.6030625 C109.772062,27.8574375 111.026437,28.5611875 112.494562,28.5611875 C115.065187,28.5611875 116.471437,26.6336875 116.471437,22.4118125 Z M119.500187,22.4118125 C119.500187,27.3068125 117.328312,30.8549375 113.167687,30.8549375 C111.423937,30.8549375 109.986437,30.2736875 108.947062,29.0199375 L108.947062,36.6680625 L106.132687,37.0036875 L106.132687,14.3668125 L108.548937,14.3668125 L108.763312,16.5386875 C109.955812,14.8868125 111.699562,13.9999375 113.535812,13.9999375 C117.817687,13.9999375 119.500187,17.3336875 119.500187,22.4118125 Z M136.571562,18.924875 L136.571562,30.488 L133.757187,30.488 L133.757187,19.322375 C133.757187,16.9055 132.779062,16.203 131.219062,16.203 C129.413437,16.203 128.190312,17.333625 127.119687,19.047375 L127.119687,30.488 L124.305312,30.488 L124.305312,14.36675 L126.721562,14.36675 L126.965937,16.752375 C128.067812,15.101125 129.780312,13.999875 131.891562,13.999875 C134.858437,13.999875 136.571562,15.8655 136.571562,18.924875 Z M151.623437,21.127 C151.623437,17.977 150.369687,16.23325 147.830937,16.23325 C145.689687,16.23325 144.282187,17.732 144.067813,21.31075 L151.623437,21.31075 L151.623437,21.127 Z M154.346563,23.391375 L144.067813,23.391375 C144.344063,27.122625 146.087812,28.561375 148.411562,28.561375 C150.002813,28.561375 151.195312,28.132625 152.602812,27.15325 L153.825937,28.836375 C152.235937,30.09075 150.431562,30.8545 148.197812,30.8545 C143.700938,30.8545 141.070312,27.703875 141.070312,22.59575 C141.070312,17.57825 143.609062,14.000125 147.769688,14.000125 C152.113437,14.000125 154.407813,17.02825 154.407813,21.952625 C154.407813,22.503875 154.377187,23.02325 154.346563,23.391375 Z M168.909187,15.834625 L167.716687,17.609 C166.278562,16.6915 165.024187,16.233375 163.526062,16.233375 C161.690437,16.233375 160.558562,17.059 160.558562,18.344 C160.558562,19.659 161.415437,20.270875 164.015437,20.944 C167.410437,21.80025 169.367937,23.1465 169.367937,25.960875 C169.367937,29.32525 166.278562,30.854625 163.005437,30.854625 C160.282937,30.854625 158.324812,29.967125 156.917312,28.744 L158.417312,27.0315 C159.702312,28.009625 161.201062,28.5915 162.944812,28.5915 C165.055437,28.5915 166.401062,27.673375 166.401062,26.144 C166.401062,24.55275 165.606062,23.9415 162.486062,23.11525 C158.998562,22.19775 157.621062,20.699 157.621062,18.434625 C157.621062,15.865875 160.099812,13.999625 163.434187,13.999625 C165.697312,13.999625 167.379812,14.673375 168.909187,15.834625 Z M181.483687,29.7536875 C180.413062,30.4880625 179.250562,30.8549375 177.874312,30.8549375 C175.151187,30.8549375 173.529937,29.2649375 173.529937,26.2661875 L173.529937,16.5380625 L170.715562,16.5380625 L170.715562,14.3668125 L173.529937,14.3668125 L173.529937,10.7268125 L176.344312,10.3899375 L176.344312,14.3668125 L180.168062,14.3668125 L179.862437,16.5380625 L176.344312,16.5380625 L176.344312,26.1443125 C176.344312,27.7655625 176.863687,28.5299375 178.271187,28.5299375 C178.974937,28.5299375 179.618062,28.3155625 180.413062,27.8261875 L181.483687,29.7536875 Z M200.544312,26.23625 L200.544312,22.535 L198.433062,22.535 C195.466187,22.535 193.967437,23.635625 193.967437,25.8375 C193.967437,27.735 194.915562,28.744375 196.750562,28.744375 C198.403062,28.744375 199.626187,27.918125 200.544312,26.23625 Z M204.704312,28.896875 L204.061187,30.855 C202.440562,30.67125 201.400562,30.02875 200.911187,28.4375 C199.778687,30.12125 198.066187,30.855 196.108062,30.855 C192.896812,30.855 190.969312,28.86625 190.969312,25.99125 C190.969312,22.535 193.569937,20.668125 198.066187,20.668125 L200.544312,20.668125 L200.544312,19.47625 C200.544312,17.150625 199.411812,16.29375 197.178687,16.29375 C195.986187,16.29375 194.487437,16.6 192.834937,17.150625 L192.131187,15.10125 C194.119937,14.366875 195.894312,14 197.699312,14 C201.584312,14 203.358687,15.98875 203.358687,19.3525 L203.358687,26.725 C203.358687,28.1325 203.878062,28.591875 204.704312,28.896875 Z M219.9395,15.7436875 L218.59325,17.5180625 C217.492,16.7218125 216.48325,16.3249375 215.136375,16.3249375 C212.59825,16.3249375 211.007,18.3130625 211.007,22.5036875 C211.007,26.7249375 212.59825,28.4686875 215.136375,28.4686875 C216.48325,28.4686875 217.431375,28.0405625 218.6545,27.2449375 L219.9395,29.0805625 C218.502,30.2430625 216.880125,30.8549375 215.0145,30.8549375 C210.67075,30.8549375 207.97825,27.7655625 207.97825,22.5643125 C207.97825,17.4255625 210.640125,13.9999375 215.0145,13.9999375 C216.91075,13.9999375 218.44075,14.4893125 219.9395,15.7436875 Z M234.258313,15.7436875 L232.912063,17.5180625 C231.810813,16.7218125 230.801437,16.3249375 229.455187,16.3249375 C226.916438,16.3249375 225.325813,18.3130625 225.325813,22.5036875 C225.325813,26.7249375 226.916438,28.4686875 229.455187,28.4686875 C230.801437,28.4686875 231.749562,28.0405625 232.973313,27.2449375 L234.258313,29.0805625 C232.820188,30.2430625 231.198938,30.8549375 229.333313,30.8549375 C224.989563,30.8549375 222.297063,27.7655625 222.297063,22.5643125 C222.297063,17.4255625 224.958937,13.9999375 229.333313,13.9999375 C231.229563,13.9999375 232.759562,14.4893125 234.258313,15.7436875 Z M247.1685,21.127 C247.1685,17.977 245.914125,16.23325 243.376,16.23325 C241.23475,16.23325 239.826625,17.732 239.612875,21.31075 L247.1685,21.31075 L247.1685,21.127 Z M249.891,23.391375 L239.612875,23.391375 C239.8885,27.122625 241.63225,28.561375 243.956625,28.561375 C245.54725,28.561375 246.73975,28.132625 248.14725,27.15325 L249.370375,28.836375 C247.780375,30.09075 245.976,30.8545 243.742875,30.8545 C239.246,30.8545 236.61475,27.703875 236.61475,22.59575 C236.61475,17.57825 239.154125,14.000125 243.314125,14.000125 C247.657875,14.000125 249.952875,17.02825 249.952875,21.952625 C249.952875,22.503875 249.921625,23.02325 249.891,23.391375 Z M254.450562,27.3068125 L254.450562,7.8818125 L257.264937,7.5449375 L257.264937,27.2449375 C257.264937,28.1018125 257.540562,28.5299375 258.274937,28.5299375 C258.672437,28.5299375 259.008687,28.4686875 259.314937,28.3468125 L260.049312,30.3043125 C259.437437,30.6405625 258.641812,30.8549375 257.816187,30.8549375 C255.766187,30.8549375 254.450562,29.6005625 254.450562,27.3068125 Z M272.653687,21.127 C272.653687,17.977 271.399312,16.23325 268.861187,16.23325 C266.719312,16.23325 265.311812,17.732 265.098062,21.31075 L272.653687,21.31075 L272.653687,21.127 Z M275.376187,23.391375 L265.098062,23.391375 C265.373687,27.122625 267.117437,28.561375 269.441187,28.561375 C271.032437,28.561375 272.224937,28.132625 273.632437,27.15325 L274.855562,28.836375 C273.265562,30.09075 271.461187,30.8545 269.228062,30.8545 C264.731187,30.8545 262.099937,27.703875 262.099937,22.59575 C262.099937,17.57825 264.639312,14.000125 268.799312,14.000125 C273.143062,14.000125 275.438062,17.02825 275.438062,21.952625 C275.438062,22.503875 275.406812,23.02325 275.376187,23.391375 Z M288.684,14.183 L288.164625,16.936125 C287.67525,16.81425 287.338375,16.752375 286.757125,16.752375 C284.738375,16.752375 283.575875,18.191125 282.90275,21.279875 L282.90275,30.488 L280.089,30.488 L280.089,14.36675 L282.50525,14.36675 L282.78025,17.639875 C283.6365,15.223 285.13525,13.999875 287.093375,13.999875 C287.613375,13.999875 288.194625,14.06175 288.684,14.183 Z M299.332187,26.23625 L299.332187,22.535 L297.220937,22.535 C294.254062,22.535 292.755312,23.635625 292.755312,25.8375 C292.755312,27.735 293.703438,28.744375 295.538437,28.744375 C297.189687,28.744375 298.414062,27.918125 299.332187,26.23625 Z M303.492188,28.896875 L302.849063,30.855 C301.228437,30.67125 300.188437,30.02875 299.699062,28.4375 C298.566562,30.12125 296.854062,30.855 294.895937,30.855 C291.684687,30.855 289.757812,28.86625 289.757812,25.99125 C289.757812,22.535 292.357812,20.668125 296.854062,20.668125 L299.332187,20.668125 L299.332187,19.47625 C299.332187,17.150625 298.199687,16.29375 295.966562,16.29375 C294.774062,16.29375 293.274687,16.6 291.622813,17.150625 L290.919062,15.10125 C292.907812,14.366875 294.682187,14 296.487187,14 C300.372187,14 302.146562,15.98875 302.146562,19.3525 L302.146562,26.725 C302.146562,28.1325 302.665937,28.591875 303.492188,28.896875 Z M316.065562,29.7536875 C314.994937,30.4880625 313.833687,30.8549375 312.456812,30.8549375 C309.733687,30.8549375 308.112437,29.2649375 308.112437,26.2661875 L308.112437,16.5380625 L305.298062,16.5380625 L305.298062,14.3668125 L308.112437,14.3668125 L308.112437,10.7268125 L310.926812,10.3899375 L310.926812,14.3668125 L314.750562,14.3668125 L314.444937,16.5380625 L310.926812,16.5380625 L310.926812,26.1443125 C310.926812,27.7655625 311.446187,28.5299375 312.853687,28.5299375 C313.557437,28.5299375 314.200562,28.3155625 314.994937,27.8261875 L316.065562,29.7536875 Z M320.533375,22.4429375 C320.533375,26.6335625 322.0015,28.5916875 324.693375,28.5916875 C327.385875,28.5916875 328.854,26.6335625 328.854,22.4116875 C328.854,18.2210625 327.385875,16.2629375 324.724625,16.2629375 C322.032125,16.2629375 320.533375,18.2210625 320.533375,22.4429375 Z M331.882125,22.4116875 C331.882125,27.3985625 329.2515,30.8548125 324.693375,30.8548125 C320.104625,30.8548125 317.504625,27.5510625 317.504625,22.4429375 C317.504625,17.4560625 320.135875,13.9998125 324.724625,13.9998125 C329.313375,13.9998125 331.882125,17.3035625 331.882125,22.4116875 Z M345.1305,14.183 L344.611125,16.936125 C344.121125,16.81425 343.78425,16.752375 343.203625,16.752375 C341.18425,16.752375 340.022375,18.191125 339.34925,21.279875 L339.34925,30.488 L336.534875,30.488 L336.534875,14.36675 L338.95175,14.36675 L339.22675,17.639875 C340.083,15.223 341.58175,13.999875 343.53925,13.999875 C344.059875,13.999875 344.641125,14.06175 345.1305,14.183 Z" id="Combined-Shape" fill="#FFFFFF"></path>
                        <path d="M10.3336875,8.4868125 L5.2686875,0.0005625 L42.2768125,0.0436875 L45.0424375,4.6768125 L13.5499375,4.8836875 L15.2855625,7.7911875 L36.3218125,7.7911875 L46.2055625,7.7911875 L27.8468125,39.5480625 L22.4518125,39.5480625 L37.7674375,12.3993125 L33.6061875,12.3993125 L23.3880625,30.8968125 L18.6086875,39.5480625 L-6.25e-05,7.5586875 L2.6080625,2.8368125 L18.6555625,29.9336875 L20.8074375,26.0374375 L10.3336875,8.4868125 Z M18.0361875,12.3993125 L23.3874375,21.3674375 L28.3411875,12.3993125 L18.0361875,12.3993125 Z" id="Combined-Shape" fill="#43A0B5"></path>
                    </g>
                </g>
            </g>
        </g>
    </g>
</svg>